# xmcd
# 
# Track frame offsets:
#     150
#     24143
#     43197
#     60086
#     97796
#     120124
#     146963
#     170236
# 
# Disc length: 2614
# 
# Revision: 0
# Processed by: cddbd v1.5.2PL0 Copyright (c) Steve Scherf et al.
# Submitted via: fre:ac v1.0.17
# 
DISCID=5c0a3408
DTITLE=筋肉少女帯 - THE SHOW MUST GO ON ～Live In Osaka～ Disc.2
DYEAR=2015
DGENRE=Rock
TTITLE0=労働讃歌
TTITLE1=ハッピーアイスクリーム
TTITLE2=パリ・恋の都
TTITLE3=これでいいのだ
TTITLE4=気もそぞろ
TTITLE5=霊媒少女キャリー
TTITLE6=釈迦
TTITLE7=トリフィドの日が来ても二人だけは生き抜く
EXTD=
EXTT0=
EXTT1=
EXTT2=
EXTT3=
EXTT4=
EXTT5=
EXTT6=
EXTT7=
PLAYORDER=
